<?xml version="1.0" encoding="iso-8859-1"?>
<!-- Uploaded to: SVG Repo, www.svgrepo.com, Generator: SVG Repo Mixer Tools -->
<svg fill="#000000" height="800px" width="800px" version="1.1" id="Layer_1" xmlns="http://www.w3.org/2000/svg" xmlns:xlink="http://www.w3.org/1999/xlink" 
	 viewBox="0 0 512.083 512.083" xml:space="preserve">
<g transform="translate(0 -1)">
	<g>
		<g>
			<path d="M298.697,385.076h-85.333c-11.782,0-21.333,9.551-21.333,21.333c0,11.782,9.551,21.333,21.333,21.333h85.333
				c11.782,0,21.333-9.551,21.333-21.333C320.031,394.628,310.479,385.076,298.697,385.076z"/>
			<path d="M234.697,257.076c0-31.467-44.075-42.667-85.333-42.667s-85.333,11.2-85.333,42.667s44.075,42.667,85.333,42.667
				S234.697,288.543,234.697,257.076z"/>
			<path d="M362.697,299.743c41.259,0,85.333-11.2,85.333-42.667s-44.075-42.667-85.333-42.667s-85.333,11.2-85.333,42.667
				S321.439,299.743,362.697,299.743z"/>
			<path d="M512.041,257.083c0-64.992-24.396-122.064-68.24-164.138c-2.055-19.891-10.141-39.621-22.631-58.536
				c-7.946-12.033-15.912-21.175-21.795-26.84c-0.216-0.209-0.436-0.425-0.646-0.624c-0.018-0.017-0.037-0.032-0.056-0.049
				c-0.004-0.004-0.008-0.008-0.012-0.012c-0.051-0.048-0.104-0.088-0.155-0.135c-0.413-0.383-0.831-0.752-1.258-1.094
				c-0.09-0.072-0.184-0.133-0.274-0.204c-0.393-0.305-0.788-0.604-1.19-0.876c-0.154-0.104-0.311-0.191-0.466-0.29
				c-0.344-0.22-0.686-0.442-1.036-0.638c-0.247-0.139-0.499-0.255-0.748-0.383c-0.262-0.133-0.521-0.277-0.785-0.398
				c-0.361-0.165-0.726-0.306-1.09-0.448c-0.156-0.061-0.311-0.134-0.468-0.19c-0.484-0.176-0.971-0.327-1.459-0.464
				c-0.04-0.011-0.079-0.026-0.119-0.037c-13.924-3.808-29.454,7.883-26.602,24.329c0.072,0.415,0.166,1.018,0.273,1.787
				c0.164,1.215,0.36,2.834,0.562,4.815c0.334,3.282,0.587,6.624,0.744,9.989c-33.321-13.295-70.156-20.23-108.549-20.23
				c-38.403,0-75.24,6.932-108.561,20.226l0.207-3.602c0.144-2.134,0.325-4.253,0.54-6.349c0.338-3.3,0.661-5.62,0.844-6.694
				c1.494-8.773-2.236-16.174-8.15-20.594c-0.035-0.026-0.067-0.055-0.102-0.081c-0.305-0.225-0.622-0.434-0.938-0.643
				c-0.131-0.087-0.258-0.182-0.391-0.266c-0.223-0.141-0.454-0.266-0.681-0.398c-0.236-0.138-0.468-0.283-0.71-0.412
				c-0.13-0.07-0.266-0.129-0.397-0.196c-0.346-0.177-0.693-0.353-1.048-0.512c-0.033-0.015-0.067-0.026-0.099-0.04
				c-7.245-3.188-16.208-2.518-23.155,4.028c-5.941,5.599-14.24,15.001-22.509,27.525C78.401,53.324,70.315,73.054,68.26,92.945
				C24.425,135.013,0.041,192.083,0.041,257.083c0,113.312,73.613,209.41,175.627,243.114c21.381,8.404,47.124,12.752,79.049,12.869
				c0.442,0.002,0.881,0.017,1.324,0.017c0.453,0,0.903-0.015,1.355-0.017c31.902-0.121,57.62-4.465,78.987-12.861
				C438.407,466.506,512.041,370.398,512.041,257.083z M257.155,470.402c-0.377,0.001-0.744,0.008-1.124,0.008
				c-0.364,0-0.716-0.006-1.078-0.007c-22.829-0.114-44.806-3.817-65.404-10.567c-12.317-5.137-22.232-12.109-30.868-20.859
				c-12.649-12.803-12.364-35.832,0.604-48.438c25.709-25.015,59.432-40.177,90.452-47.405c2.086-0.485,4.156-0.723,6.294-0.723
				c2.139,0,4.208,0.238,6.304,0.726c31.165,7.302,64.81,22.429,90.516,47.456c12.918,12.595,13.186,35.584,0.552,48.385
				c-8.648,8.753-18.566,15.724-30.881,20.861C301.934,466.584,279.97,470.285,257.155,470.402z M42.708,257.083
				c0-42.534,12.478-80.38,35.525-111.237c0.886,1.747,1.81,3.492,2.815,5.232c7.818,13.529,19.106,26.07,33.928,37.538
				c9.318,7.21,22.717,5.501,29.927-3.818c7.21-9.319,5.5-22.717-3.818-29.927c-10.596-8.198-18.163-16.606-23.095-25.141
				c-4.557-7.886-6.897-16.08-7.268-24.51c0.123-0.884,0.197-1.779,0.208-2.682c0.017-1.48,0.113-2.972,0.247-4.468
				c8.815,27.352,26.702,46.567,55.593,51.977c11.581,2.169,22.727-5.462,24.895-17.042c2.169-11.581-5.462-22.727-17.042-24.895
				c-10.545-1.974-17.746-8.929-22.179-21.164c30.926-14.289,66.25-21.86,103.597-21.86c37.33,0,72.651,7.572,103.576,21.86
				c-4.434,12.236-11.635,19.19-22.179,21.164c-11.581,2.169-19.211,13.315-17.042,24.895c2.169,11.581,13.315,19.211,24.895,17.042
				c28.893-5.41,46.782-24.628,55.596-51.983c0.133,1.496,0.228,2.986,0.245,4.465c0.01,0.907,0.085,1.805,0.208,2.692
				c-0.37,8.43-2.711,16.625-7.268,24.511c-4.932,8.535-12.499,16.943-23.095,25.141c-9.318,7.21-11.028,20.609-3.818,29.927
				c7.21,9.318,20.609,11.028,29.927,3.818c14.822-11.468,26.11-24.01,33.928-37.538c1.006-1.741,1.93-3.487,2.817-5.234
				c23.058,30.863,35.545,68.712,35.545,111.24c0,59.775-24.596,113.798-64.207,152.53c-1.264-18.288-8.788-36.17-22.543-49.581
				c-32.288-31.436-72.527-49.527-110.591-58.446c-5.294-1.231-10.606-1.843-16.003-1.843c-5.397,0-10.709,0.611-15.968,1.834
				c-37.909,8.834-78.252,26.972-110.525,58.374c-13.804,13.419-21.357,31.34-22.625,49.666
				C67.302,370.887,42.708,316.863,42.708,257.083z"/>
		</g>
	</g>
</g>
</svg>