<?xml version="1.0" encoding="iso-8859-1"?>
<!-- Uploaded to: SVG Repo, www.svgrepo.com, Generator: SVG Repo Mixer Tools -->
<!DOCTYPE svg PUBLIC "-//W3C//DTD SVG 1.1//EN" "http://www.w3.org/Graphics/SVG/1.1/DTD/svg11.dtd">
<svg fill="#000000" height="800px" width="800px" version="1.1" id="Capa_1" xmlns="http://www.w3.org/2000/svg" xmlns:xlink="http://www.w3.org/1999/xlink" 
	 viewBox="0 0 47 47" xml:space="preserve">
<g>
	<path d="M37.57,15.145c0.178,0.134,0.389,0.2,0.6,0.2c0.216,0,0.432-0.069,0.612-0.209c2.278-1.763,3.522-3.83,3.697-6.145
		c0.278-3.701-2.265-6.963-3.805-8.578c-0.531-0.559-1.496-0.521-1.988,0.064c-0.252,0.3-0.356,0.694-0.288,1.086
		c0.335,1.895,1.153,8.13-2.413,8.799c-0.39,0.072-0.699,0.369-0.789,0.755c-0.09,0.387,0.057,0.79,0.374,1.027L37.57,15.145z"/>
	<path d="M33.39,31.181c-3.304-2.749-7.325-3.855-8.9-4.204c-0.295-0.065-0.586-0.097-0.887-0.097s-0.592,0.031-0.888,0.097
		c-1.627,0.36-5.774,1.509-9.107,4.38c-0.988,0.853-1.542,2.099-1.518,3.418c0.023,1.312,0.616,2.526,1.627,3.334
		c2.213,1.771,5.537,2.702,9.886,2.768c4.196-0.063,7.443-0.934,9.657-2.59c1.112-0.832,1.771-2.094,1.807-3.461
		C35.103,33.426,34.491,32.098,33.39,31.181z M28.5,36h-10c-0.553,0-1-0.447-1-1s0.447-1,1-1h10c0.553,0,1,0.447,1,1
		S29.053,36,28.5,36z"/>
	<path d="M42.833,14.54l-0.025,0.024c-1.205,1.402-2.881,2.258-4.727,2.411c-0.198,0.017-0.396,0.025-0.592,0.025
		c-1.652,0-3.235-0.578-4.511-1.657c-2.946-2.493-3.314-6.919-0.822-9.865l0.422-0.49C29.742,3.689,26.67,3,23.5,3
		c-2.907,0-5.714,0.554-8.362,1.646l0.704,0.831c2.493,2.947,2.125,7.373-0.82,9.866c-1.276,1.079-2.859,1.656-4.512,1.657
		c-0.196,0-0.394-0.009-0.592-0.025c-1.864-0.155-3.555-1.026-4.763-2.454l-0.552-0.713C2.572,17.145,1.5,20.941,1.5,25
		c0,12.131,9.869,22,22,22s22-9.869,22-22C45.5,21.33,44.561,17.736,42.833,14.54z M6.768,21.62c0-2.38,3.459-3.625,6.875-3.625
		s6.875,1.245,6.875,3.625s-3.459,3.625-6.875,3.625S6.768,24,6.768,21.62z M34.457,39.888c-2.47,1.848-5.95,2.848-10.354,2.978
		v0.015c-0.168,0-0.335-0.001-0.5-0.004c-0.165,0.003-0.332,0.004-0.5,0.004v-0.015c-4.578-0.135-8.152-1.208-10.636-3.195
		c-1.476-1.181-2.342-2.951-2.377-4.858c-0.035-1.917,0.771-3.729,2.212-4.971c3.678-3.167,8.206-4.424,9.982-4.817
		c0.867-0.191,1.771-0.191,2.636,0c1.719,0.38,6.108,1.591,9.749,4.62c1.575,1.311,2.449,3.218,2.396,5.233
		C37.014,36.86,36.063,38.687,34.457,39.888z M33.643,25.245c-3.416,0-6.875-1.245-6.875-3.625s3.459-3.625,6.875-3.625
		s6.875,1.245,6.875,3.625S37.059,25.245,33.643,25.245z"/>
	<path d="M9.218,15.12c0.181,0.14,0.396,0.209,0.612,0.209c0.211,0,0.422-0.066,0.6-0.2l4-3c0.317-0.237,0.464-0.641,0.374-1.027
		c-0.09-0.386-0.399-0.683-0.789-0.755c-3.566-0.669-2.748-6.904-2.413-8.799c0.068-0.392-0.036-0.786-0.288-1.086
		c-0.492-0.586-1.457-0.623-1.988-0.064c-1.54,1.615-4.083,4.877-3.805,8.578C5.696,11.29,6.94,13.358,9.218,15.12z"/>
</g>
</svg>